<svg width="220" height="220" viewBox="0 0 220 220" fill="none" xmlns="http://www.w3.org/2000/svg">
  <defs>
    <linearGradient id="ring" x1="42" y1="36" x2="182" y2="184" gradientUnits="userSpaceOnUse">
      <stop stop-color="#4ADE80"/>
      <stop offset="1" stop-color="#38BDF8"/>
    </linearGradient>
    <linearGradient id="body" x1="78" y1="58" x2="144" y2="164" gradientUnits="userSpaceOnUse">
      <stop stop-color="#15233B"/>
      <stop offset="1" stop-color="#09111F"/>
    </linearGradient>
    <linearGradient id="screen" x1="84" y1="70" x2="138" y2="156" gradientUnits="userSpaceOnUse">
      <stop stop-color="#0F1B30"/>
      <stop offset="1" stop-color="#0A1222"/>
    </linearGradient>
    <linearGradient id="charge" x1="87" y1="112" x2="135" y2="152" gradientUnits="userSpaceOnUse">
      <stop stop-color="#4ADE80"/>
      <stop offset="1" stop-color="#16A34A"/>
    </linearGradient>
    <linearGradient id="shine" x1="88" y1="67" x2="127" y2="131" gradientUnits="userSpaceOnUse">
      <stop stop-color="white" stop-opacity="0.28"/>
      <stop offset="1" stop-color="white" stop-opacity="0"/>
    </linearGradient>
  </defs>

  <circle cx="110" cy="110" r="74" fill="#07101E"/>
  <circle cx="110" cy="110" r="72" stroke="url(#ring)" stroke-opacity="0.35" stroke-width="4"/>
  <circle cx="110" cy="110" r="90" stroke="url(#ring)" stroke-opacity="0.14" stroke-width="16"/>

  <rect x="74" y="54" width="72" height="112" rx="20" fill="url(#body)"/>
  <rect x="76" y="56" width="68" height="108" rx="18" stroke="#D9FBE8" stroke-opacity="0.65" stroke-width="4"/>
  <rect x="95" y="43" width="30" height="10" rx="5" fill="#E2E8F0"/>

  <rect x="84" y="66" width="52" height="90" rx="14" fill="url(#screen)"/>
  <path d="M84 116H136V142C136 149.732 129.732 156 122 156H98C90.268 156 84 149.732 84 142V116Z" fill="url(#charge)"/>
  <path d="M89 71C89 68.2386 91.2386 66 94 66H112L92 123V71H89Z" fill="url(#shine)"/>

  <path d="M113.527 76L98 109.532H109.195L105.473 144L121 110.468H109.805L113.527 76Z" fill="#F8FAFC"/>
</svg>
